# This file uses centimeters as units for non-parametric coordinates.

mtllib box open.mtl
g default
v -0.500000 0.120454 0.500000
v 0.500000 0.120454 0.500000
v -0.500000 1.125943 0.500000
v 0.500000 1.125943 0.500000
v -0.500000 1.125943 -0.500000
v 0.500000 1.125943 -0.500000
v -0.500000 0.120454 -0.500000
v 0.500000 0.120454 -0.500000
v 0.530000 0.125855 0.500003
v 0.525483 0.125943 0.525483
v 0.500003 0.125855 0.530000
v 0.515001 0.124445 0.515001
v 0.530000 1.125943 0.500003
v 0.500003 1.125943 0.530000
v 0.525483 1.125943 0.525483
v -0.530000 0.125855 0.500003
v -0.515001 0.124445 0.515001
v -0.500003 0.125855 0.530000
v -0.525483 0.125943 0.525483
v -0.530000 1.125943 0.500003
v -0.525483 1.125943 0.525483
v -0.500003 1.125943 0.530000
v 0.530000 1.125943 -0.500003
v 0.525483 1.125943 -0.525483
v 0.500003 1.125943 -0.530000
v 0.530000 0.125855 -0.500003
v 0.515001 0.124445 -0.515001
v 0.500003 0.125855 -0.530000
v 0.525483 0.125943 -0.525483
v -0.530000 1.125943 -0.500003
v -0.500003 1.125943 -0.530000
v -0.525483 1.125943 -0.525483
v -0.530000 0.125855 -0.500003
v -0.525483 0.125943 -0.525483
v -0.500003 0.125855 -0.530000
v -0.515001 0.124445 -0.515001
v -0.500000 1.150451 0.500000
v 0.500000 1.150451 0.500000
v -0.514933 1.150359 0.514865
v -0.500003 1.150451 0.521166
v 0.500003 1.150451 0.521166
v 0.514933 1.150359 0.514865
v -0.500000 1.150451 -0.500000
v 0.500000 1.150451 -0.500000
v 0.514933 1.150359 -0.514865
v 0.500003 1.150451 -0.521166
v -0.500003 1.150451 -0.521166
v -0.514933 1.150359 -0.514865
v 0.530000 1.150451 0.500003
v 0.530000 1.150451 -0.500003
v -0.530000 1.150451 -0.500003
v -0.530000 1.150451 0.500003
v 0.520939 1.138587 0.520939
v -0.520939 1.138587 0.520939
v 0.520939 1.138587 -0.520939
v -0.520939 1.138587 -0.520939
v 0.803546 1.463806 0.500000
v 0.803546 1.463806 -0.500000
v 0.818548 1.463806 0.515001
v 0.833546 1.463806 0.500003
v 0.833546 1.463806 -0.500003
v 0.818548 1.463806 -0.515001
v -0.780245 1.453681 0.500000
v -0.780245 1.453681 -0.500000
v -0.795247 1.453681 -0.515001
v -0.810245 1.453681 -0.500003
v -0.810245 1.453681 0.500003
v -0.795247 1.453681 0.515001
v -0.500000 1.222260 0.018762
v 0.500000 1.222260 0.018762
v -0.500000 1.246767 0.018762
v 0.500000 1.246767 0.018762
v -0.500000 1.128322 -0.018762
v 0.500000 1.128322 -0.018762
v 0.500000 1.152830 -0.018762
v -0.500000 1.152830 -0.018762
vt 0.594517 0.188572
vt 0.594517 0.375396
vt 0.407707 0.375396
vt 0.407707 0.188572
vt 0.599277 0.375380
vt 0.599277 0.188572
vt 0.402947 0.188572
vt 0.402947 0.375380
vt 0.407707 0.183993
vt 0.594517 0.183993
vt 0.598428 0.186210
vt 0.403796 0.186210
vt 0.407707 0.104990
vt 0.594517 0.104990
vt 0.597293 0.184011
vt 0.404931 0.184011
vt 0.404905 0.125456
vt 0.597318 0.125456
vt 0.407707 0.760238
vt 0.407707 0.573413
vt 0.594517 0.573413
vt 0.594517 0.760238
vt 0.402947 0.760238
vt 0.402947 0.573429
vt 0.599277 0.573429
vt 0.599277 0.760238
vt 0.594517 0.764816
vt 0.407707 0.764816
vt 0.403796 0.762600
vt 0.598428 0.762600
vt 0.594517 0.846011
vt 0.407707 0.846011
vt 0.404931 0.764799
vt 0.597293 0.764799
vt 0.597318 0.821462
vt 0.404905 0.821462
vt 0.407708 0.020190
vt 0.594516 0.020190
vt 0.594516 0.024768
vt 0.407708 0.024768
vt 0.594516 0.099386
vt 0.407708 0.099386
vt 0.597293 0.061297
vt 0.597318 0.119852
vt 0.404931 0.061297
vt 0.404905 0.119852
vt 0.594516 0.936512
vt 0.407708 0.936512
vt 0.407708 0.931933
vt 0.594516 0.931933
vt 0.407708 0.851615
vt 0.594516 0.851615
vt 0.404931 0.883729
vt 0.404905 0.827066
vt 0.597293 0.883729
vt 0.597318 0.827066
vt 0.794596 0.572211
vt 0.795477 0.567809
vt 0.885377 0.567809
vt 0.884496 0.572211
vt 0.795477 0.381001
vt 0.794596 0.376599
vt 0.884495 0.376598
vt 0.885377 0.381000
vt 0.206769 0.376423
vt 0.206747 0.381001
vt 0.116847 0.381001
vt 0.116870 0.376422
vt 0.206747 0.567809
vt 0.206769 0.572387
vt 0.116870 0.572387
vt 0.116847 0.567809
vt 0.407708 0.567809
vt 0.407708 0.381000
vt 0.594516 0.381000
vt 0.594516 0.567809
vt 0.404905 0.570611
vt 0.402104 0.567809
vt 0.402103 0.381000
vt 0.404905 0.378198
vt 0.597318 0.378198
vt 0.600120 0.381000
vt 0.600120 0.567809
vt 0.597319 0.570611
vt 0.402947 0.572569
vt 0.402947 0.376240
vt 0.599276 0.376240
vt 0.599277 0.572569
vt 0.792700 0.570599
vt 0.791523 0.567809
vt 0.791523 0.381000
vt 0.792700 0.378211
vt 0.791566 0.571720
vt 0.791566 0.377089
vt 0.209523 0.378211
vt 0.210701 0.381000
vt 0.210701 0.567809
vt 0.209524 0.570599
vt 0.210658 0.377089
vt 0.210658 0.571721
vt 0.597318 0.122654
vt 0.404905 0.122654
vt 0.404905 0.824264
vt 0.597318 0.824264
vt 0.979854 0.381000
vt 0.979854 0.567809
vt 0.889955 0.567809
vt 0.889955 0.381001
vt 0.022370 0.567809
vt 0.022370 0.381001
vt 0.112269 0.381001
vt 0.112269 0.567809
vt 0.786945 0.567809
vt 0.786945 0.381000
vt 0.600137 0.572569
vt 0.786945 0.572569
vt 0.600137 0.376240
vt 0.786945 0.376240
vt 0.789307 0.571720
vt 0.789307 0.377089
vt 0.215279 0.567809
vt 0.215279 0.381000
vt 0.215279 0.572569
vt 0.402087 0.572569
vt 0.215279 0.376240
vt 0.402087 0.376240
vt 0.212917 0.571721
vt 0.212917 0.377089
vn -0.004377 0.008556 0.999954
vn -0.004395 0.000000 0.999990
vn 0.004395 0.000000 0.999990
vn 0.004377 0.008556 0.999954
vn -0.004395 0.000000 -0.999990
vn -0.004377 0.008556 -0.999954
vn 0.004377 0.008556 -0.999954
vn 0.004395 0.000000 -0.999990
vn -0.002650 -0.999993 -0.002650
vn 0.002650 -0.999993 -0.002650
vn 0.002650 -0.999993 0.002650
vn -0.002650 -0.999993 0.002650
vn 0.999990 0.000065 0.004433
vn 0.999990 0.000000 0.004395
vn 0.999990 0.000000 -0.004395
vn 0.999990 0.000065 -0.004433
vn -0.999990 0.000065 -0.004433
vn -0.999990 0.000000 -0.004395
vn -0.999990 0.000000 0.004395
vn -0.999990 0.000065 0.004433
vn 0.106652 -0.988560 0.106651
vn 0.000726 -0.984217 0.176965
vn -0.000726 -0.984217 0.176965
vn -0.106651 -0.988560 0.106651
vn -0.358667 0.775914 0.518956
vn -0.001465 0.999994 0.003277
vn -0.000001 0.981364 0.192156
vn 0.358667 0.775914 0.518956
vn 0.000001 0.981364 0.192156
vn 0.001465 0.999994 0.003269
vn 0.358669 0.775911 -0.518960
vn 0.001465 0.999994 -0.003269
vn 0.000001 0.999988 -0.004836
vn -0.358669 0.775911 -0.518960
vn -0.000001 0.999988 -0.004836
vn -0.001465 0.999994 -0.003277
vn -0.106652 -0.988560 -0.106651
vn -0.000726 -0.984217 -0.176965
vn 0.000726 -0.984217 -0.176965
vn 0.106651 -0.988560 -0.106651
vn 0.176965 -0.984217 -0.000726
vn 0.176965 -0.984217 0.000726
vn 0.000000 1.000000 0.000000
vn 0.000000 1.000000 0.000000
vn 0.000000 1.000000 0.000000
vn 0.000000 1.000000 0.000000
vn 0.000000 1.000000 0.000000
vn 0.000000 1.000000 0.000000
vn -0.176965 -0.984217 0.000726
vn -0.176965 -0.984217 -0.000726
vn 0.000000 1.000000 0.000000
vn 0.000000 1.000000 0.000000
vn 0.000000 1.000000 0.000000
vn 0.000000 1.000000 0.000000
vn 0.000000 1.000000 0.000000
vn 0.000000 1.000000 0.000000
vn 0.174560 0.000000 0.984647
vn 0.174856 0.005100 0.984581
vn 0.984647 0.000000 0.174558
vn 0.984285 0.002163 0.176575
vn -0.984647 0.000000 0.174558
vn -0.984285 0.002163 0.176575
vn -0.174560 0.000000 0.984647
vn -0.174856 0.005100 0.984581
vn 0.174856 0.005100 -0.984581
vn 0.174560 0.000000 -0.984647
vn 0.984285 0.002163 -0.176575
vn 0.984647 0.000000 -0.174558
vn -0.984285 0.002163 -0.176575
vn -0.984647 0.000000 -0.174558
vn -0.174856 0.005100 -0.984581
vn -0.174560 0.000000 -0.984647
vn 0.071097 -0.994932 0.071097
vn 0.485844 0.583582 0.650682
vn 0.566583 0.587275 0.578007
vn -0.071097 -0.994932 0.071097
vn -0.566585 0.587273 0.578007
vn -0.485845 0.583581 0.650683
vn 0.566588 0.587269 -0.578007
vn 0.485848 0.583577 -0.650684
vn 0.071097 -0.994932 -0.071097
vn -0.485847 0.583577 -0.650684
vn -0.566588 0.587270 -0.578008
vn -0.071097 -0.994932 -0.071097
vn 0.000000 -0.000001 -1.000000
vn 0.000000 -0.000001 -1.000000
vn 0.000000 -0.000001 -1.000000
vn 0.000000 -0.000001 -1.000000
vn 0.002209 0.339332 0.940664
vn -0.002209 0.339332 0.940664
vn 0.000000 0.000000 1.000000
vn 0.000000 0.000000 1.000000
vn 0.000000 0.000000 1.000000
vn 0.000000 0.000000 1.000000
vn -0.002209 0.339332 -0.940664
vn 0.002209 0.339332 -0.940664
vn -1.000000 0.000000 0.000000
vn -1.000000 0.000000 0.000000
vn -0.743874 0.668319 0.000000
vn -0.743874 0.668319 0.000000
vn 0.744212 -0.667944 -0.000213
vn 0.744212 -0.667944 0.000213
vn 1.000000 0.000001 0.000000
vn 1.000000 0.000001 0.000000
vn 0.760027 0.649891 0.000000
vn 0.760027 0.649891 0.000000
vn -0.760366 -0.649495 0.000225
vn -0.760366 -0.649495 -0.000225
vn 0.183963 0.352854 0.917416
vn 0.937262 0.152958 0.313278
vn -0.937263 0.152958 0.313277
vn -0.183963 0.352853 0.917416
vn 0.937263 0.152958 -0.313277
vn 0.183963 0.352853 -0.917416
vn -0.183963 0.352854 -0.917416
vn -0.937262 0.152958 -0.313278
vn -0.718259 0.695776 0.000000
vn -0.718259 0.695776 0.000000
vn -0.582373 0.563999 0.585446
vn -0.582373 0.563999 0.585446
vn -0.582373 0.563999 0.585446
vn -0.582373 0.563999 0.585446
vn 0.582564 -0.564439 0.584831
vn 0.582564 -0.564439 0.584831
vn 0.582564 -0.564439 0.584831
vn 0.582564 -0.564439 0.584831
vn 0.718260 -0.695775 0.000000
vn 0.718260 -0.695775 0.000000
vn 0.582567 -0.564438 -0.584829
vn 0.582567 -0.564438 -0.584829
vn 0.582567 -0.564438 -0.584829
vn 0.582567 -0.564438 -0.584829
vn -0.582376 0.563998 -0.585443
vn -0.582376 0.563998 -0.585443
vn -0.582376 0.563998 -0.585443
vn -0.582376 0.563998 -0.585443
vn 0.734393 0.678725 0.000000
vn 0.734393 0.678725 0.000000
vn 0.590905 0.545963 -0.593932
vn 0.590905 0.545963 -0.593932
vn 0.590905 0.545964 -0.593932
vn 0.590905 0.545963 -0.593932
vn -0.591048 -0.546364 -0.593421
vn -0.591048 -0.546364 -0.593421
vn -0.591048 -0.546364 -0.593421
vn -0.591048 -0.546364 -0.593421
vn -0.734393 -0.678725 0.000000
vn -0.734393 -0.678725 0.000000
vn -0.591046 -0.546364 0.593423
vn -0.591046 -0.546364 0.593423
vn -0.591046 -0.546364 0.593423
vn -0.591046 -0.546364 0.593423
vn 0.590903 0.545963 0.593934
vn 0.590903 0.545963 0.593934
vn 0.590903 0.545963 0.593934
vn 0.590903 0.545963 0.593934
vn 0.000000 -0.980554 -0.196252
vn 0.000000 -0.980554 -0.196252
vn 0.000000 -0.980554 -0.196252
vn 0.000000 -0.980554 -0.196252
vn -1.000000 0.000000 0.000000
vn -1.000000 0.000000 0.000000
vn -1.000000 0.000000 0.000000
vn -1.000000 0.000000 0.000000
vn 0.000000 0.980554 0.196252
vn 0.000000 0.980554 0.196252
vn 1.000000 0.000000 0.000000
vn 1.000000 0.000000 0.000000
vn 1.000000 0.000000 0.000000
vn 1.000000 0.000000 0.000000
vn 0.000000 -0.999988 0.004943
vn 0.000000 -0.999988 0.004943
vn 0.000000 -0.999988 0.004943
vn 0.000000 -0.999988 0.004943
vn 1.000000 0.000000 0.000000
vn 1.000000 0.000000 0.000000
vn 1.000000 0.000000 0.000000
vn 1.000000 0.000000 0.000000
vn 0.000000 0.999988 -0.004943
vn 0.000000 0.999988 -0.004943
vn -1.000000 0.000000 0.000000
vn -1.000000 0.000000 0.000000
vn -1.000000 0.000000 0.000000
vn -1.000000 0.000000 0.000000
s 1
g box
usemtl aiStandardSurface3SG
f 22/113/1 18/83/2 11/82/3 14/114/4
s 2
f 35/78/5 31/121/6 25/122/7 28/79/8
s 3
f 7/73/9 8/74/10 2/75/11 1/76/12
s 4
f 13/1/13 9/2/14 26/3/15 23/4/16
s 5
f 30/19/17 33/20/18 16/21/19 20/22/20
s 3
f 12/81/21 11/82/22 2/75/11
f 11/82/22 18/83/23 2/75/11
f 17/84/24 1/76/12 18/83/23
f 1/76/12 2/75/11 18/83/23
s 8
f 39/89/25 40/90/26 37/58/27
f 42/92/28 38/61/29 41/91/30
f 40/90/26 41/91/30 37/58/27
f 38/61/29 37/58/27 41/91/30
s 10
f 45/95/31 46/96/32 44/66/33
f 48/98/34 43/69/35 47/97/36
f 46/96/32 47/97/36 44/66/33
f 43/69/35 44/66/33 47/97/36
s 3
f 36/77/37 35/78/38 7/73/9
f 35/78/38 28/79/39 7/73/9
f 27/80/40 8/74/10 28/79/39
f 8/74/10 7/73/9 28/79/39
f 27/80/40 26/3/41 8/74/10
f 26/3/41 9/2/42 8/74/10
f 12/81/21 2/75/11 9/2/42
f 2/75/11 8/74/10 9/2/42
s 14
f 59/101/43 60/14/44 57/41/45
f 60/14/44 61/13/46 57/41/45
f 62/102/47 58/42/48 61/13/46
f 58/42/48 57/41/45 61/13/46
s 3
f 17/84/24 16/21/49 1/76/12
f 16/21/49 33/20/50 1/76/12
f 36/77/37 7/73/9 33/20/50
f 7/73/9 1/76/12 33/20/50
s 15
f 65/103/51 66/32/52 64/51/53
f 66/32/52 67/31/54 64/51/53
f 68/104/55 63/52/56 67/31/54
f 63/52/56 64/51/53 67/31/54
s 1
f 11/82/3 10/117/57 15/118/58 14/114/4
s 4
f 10/5/59 9/2/14 13/1/13 15/6/60
s 5
f 16/21/19 19/25/61 21/26/62 20/22/20
s 1
f 19/115/63 18/83/2 22/113/1 21/116/64
s 2
f 25/122/7 24/125/65 29/126/66 28/79/8
s 4
f 24/7/67 23/4/16 26/3/15 29/8/68
s 5
f 30/19/17 32/23/69 34/24/70 33/20/18
s 2
f 32/123/71 31/121/6 35/78/5 34/124/72
s 3
f 12/81/21 9/2/42 10/87/73
f 12/81/21 10/87/73 11/82/22
s 8
f 42/92/28 41/91/30 53/94/74
f 42/15/28 53/11/74 49/10/75
s 3
f 17/84/24 18/83/23 19/88/76
f 17/84/24 19/88/76 16/21/49
s 8
f 39/34/25 52/27/77 54/30/78
f 39/89/25 54/93/78 40/90/26
s 10
f 45/16/31 50/9/79 55/12/80
f 45/95/31 55/99/80 46/96/32
s 3
f 27/80/40 28/79/39 29/86/81
f 27/80/40 29/86/81 26/3/41
s 10
f 48/98/34 47/97/36 56/100/82
f 48/33/34 56/29/82 51/28/83
s 3
f 36/77/37 33/20/50 34/85/84
f 36/77/37 34/85/84 35/78/38
s off
f 70/108/85 69/107/86 71/59/87 72/64/88
s 1
f 22/113/1 14/114/4 41/91/89 40/90/90
s off
f 73/112/91 74/111/92 75/67/93 76/72/94
s 2
f 25/122/7 31/121/6 47/97/95 46/96/96
s 16
f 6/37/97 4/38/98 38/39/99 44/40/100
s 4
f 13/1/13 23/4/16 50/9/101 49/10/102
s 17
f 3/47/103 5/48/104 43/49/105 37/50/106
s 5
f 30/19/17 20/22/20 52/27/107 51/28/108
s 1
f 14/114/4 15/118/58 53/120/109 41/91/89
s 4
f 15/6/60 13/1/13 49/10/102 53/11/110
s 5
f 20/22/20 21/26/62 54/30/111 52/27/107
s 1
f 21/116/64 22/113/1 40/90/90 54/119/112
s 4
f 23/4/16 24/7/67 55/12/113 50/9/101
s 2
f 24/125/65 25/122/7 46/96/96 55/128/114
f 31/121/6 32/123/71 56/127/115 47/97/95
s 5
f 32/23/69 30/19/17 51/28/108 56/29/116
s 16
f 44/40/100 38/39/99 57/41/117 58/42/118
s off
f 38/39/119 42/43/120 59/44/121 57/41/122
f 42/15/123 49/10/124 60/14/125 59/18/126
s 4
f 49/10/102 50/9/101 61/13/127 60/14/128
s off
f 50/9/129 45/16/130 62/17/131 61/13/132
f 45/45/133 44/40/134 58/42/135 62/46/136
s 17
f 37/50/106 43/49/105 64/51/137 63/52/138
s off
f 43/49/139 48/53/140 65/54/141 64/51/142
f 48/33/143 51/28/144 66/32/145 65/36/146
s 5
f 51/28/108 52/27/107 67/31/147 66/32/148
s off
f 52/27/149 39/34/150 68/35/151 67/31/152
f 39/55/153 37/50/154 63/52/155 68/56/156
f 4/105/157 3/106/158 69/107/159 70/108/160
f 3/57/161 37/58/162 71/59/163 69/60/164
s 8
f 37/58/27 38/61/29 72/64/165 71/59/166
s off
f 38/61/167 4/62/168 70/63/169 72/64/170
f 5/109/171 6/110/172 74/111/173 73/112/174
f 6/65/175 44/66/176 75/67/177 74/68/178
s 10
f 44/66/33 43/69/35 76/72/179 75/67/180
s off
f 43/69/181 5/70/182 73/71/183 76/72/184
