# This file uses centimeters as units for non-parametric coordinates.

mtllib rock3.mtl
g default
v -0.287919 0.011390 0.436074
v -0.287251 0.050545 0.460976
v -0.324811 0.043913 0.430104
v 0.205311 -0.002304 0.507366
v 0.160077 0.016448 0.544471
v 0.111236 0.010610 0.549763
v 0.139156 -0.023581 0.520426
v 0.467977 0.221372 0.375635
v 0.434036 0.215317 0.408989
v 0.449472 0.178075 0.384769
v -0.287863 0.476048 0.265097
v -0.270347 0.498081 0.303871
v -0.250264 0.508319 0.260465
v -0.016968 0.768386 0.334826
v -0.017383 0.739175 0.374775
v 0.026796 0.765237 0.371506
v 0.024966 0.792504 0.329667
v 0.257758 0.855602 0.248394
v 0.266793 0.821579 0.283284
v 0.301418 0.836270 0.250920
v -0.138784 0.487951 -0.212096
v -0.124769 0.538049 -0.229442
v -0.119517 0.507752 -0.264976
v 0.012691 0.718872 -0.378445
v 0.014484 0.761203 -0.346969
v 0.054465 0.788070 -0.346114
v 0.057539 0.754534 -0.382409
v 0.264504 0.801236 -0.304196
v 0.257205 0.839059 -0.274316
v 0.297735 0.816994 -0.272406
v -0.190822 0.012556 -0.220097
v -0.153050 0.013969 -0.251509
v -0.160315 -0.025409 -0.222118
v 0.207157 -0.018766 -0.324693
v 0.178555 0.009590 -0.357299
v 0.227745 0.013840 -0.351903
v 0.291445 -0.016313 -0.281305
v 0.380720 -0.010845 -0.237536
v 0.377727 0.020405 -0.278253
v 0.412701 0.028206 -0.245921
v -0.374089 0.361405 0.374880
v -0.350449 0.368476 0.414778
v -0.339548 0.411253 0.392368
v -0.359953 0.405935 0.344569
v 0.428159 0.590000 0.359546
v 0.393555 0.584866 0.391304
v 0.407496 0.539427 0.400905
v 0.441002 0.544702 0.369677
v -0.212845 0.462626 0.028685
v -0.179226 0.497725 0.023705
v -0.166763 0.500468 -0.024124
v -0.200028 0.465443 -0.020986
v 0.381666 0.959116 -0.040317
v 0.335810 0.971436 -0.040656
v 0.335626 0.972926 0.007680
v 0.381747 0.960765 0.008046
v -0.146414 0.342385 -0.171029
v -0.114964 0.354912 -0.213422
v -0.120352 0.299515 -0.205545
v -0.150209 0.294625 -0.168180
v 0.428520 0.478591 -0.348215
v 0.391558 0.469484 -0.375869
v 0.383501 0.517830 -0.375610
v 0.420006 0.526150 -0.347325
v -0.387528 0.002602 0.189456
v -0.352987 -0.029623 0.201705
v -0.354797 -0.024691 0.250540
v -0.389709 0.009019 0.239282
v 0.607477 0.137626 0.112609
v 0.592549 0.090492 0.119848
v 0.587602 0.073852 0.075309
v 0.605840 0.123000 0.066831
v -0.007087 0.511859 0.532399
v 0.000383 0.466550 0.546509
v 0.046688 0.476172 0.545926
v 0.039976 0.523177 0.531014
v -0.008468 0.817115 -0.036459
v -0.009961 0.818719 0.012732
v 0.024526 0.850176 0.012792
v 0.026438 0.849802 -0.037490
v 0.031509 0.421213 -0.441839
v 0.021930 0.470383 -0.441640
v 0.064622 0.484758 -0.458679
v 0.073554 0.437611 -0.459532
v 0.451630 -0.026867 0.150233
v 0.471806 -0.026388 0.099107
v 0.518078 -0.004960 0.090938
v 0.514869 -0.001914 0.138114
v 0.596076 0.612293 0.020512
v 0.608639 0.566106 0.026734
v 0.608851 0.561706 -0.020332
v 0.595509 0.609006 -0.026227
v -0.305191 0.383808 0.001686
v -0.339221 0.344667 0.021397
v -0.361153 0.349918 0.068383
v -0.335945 0.387745 0.049272
vt 0.387874 0.967958
vt 0.378870 0.974165
vt 0.379051 0.872385
vt 0.384552 0.015298
vt 0.386306 0.022480
vt 0.513027 0.976053
vt 0.494765 0.973640
vt 0.523264 0.015298
vt 0.508304 0.021703
vt 0.619452 0.982892
vt 0.608145 0.976261
vt 0.621207 0.873747
vt 0.628420 0.021484
vt 0.378870 0.260801
vt 0.378870 0.358014
vt 0.368711 0.239483
vt 0.384924 0.244685
vt 0.491733 0.247764
vt 0.507429 0.248168
vt 0.621207 0.264193
vt 0.611129 0.248671
vt 0.378870 0.520681
vt 0.378870 0.598589
vt 0.378870 0.478514
vt 0.378870 0.388627
vt 0.386505 0.490911
vt 0.490171 0.491251
vt 0.513093 0.490674
vt 0.621207 0.503556
vt 0.612596 0.492213
vt 0.621207 0.393354
vt 0.380327 0.750816
vt 0.378870 0.852486
vt 0.378870 0.727303
vt 0.378870 0.633108
vt 0.386914 0.728271
vt 0.492262 0.731499
vt 0.509324 0.735197
vt 0.620545 0.742972
vt 0.606617 0.735390
vt 0.615842 0.626506
vt 0.367784 0.157955
vt 0.386607 0.127454
vt 0.493207 0.128735
vt 0.491927 0.149947
vt 0.628018 0.128301
vt 0.611305 0.145779
vt 0.507183 0.145799
vt 0.507968 0.128154
vt 0.249447 0.239919
vt 0.268780 0.155041
vt 0.385793 0.369962
vt 0.492889 0.371066
vt 0.490394 0.390323
vt 0.731815 0.250188
vt 0.732516 0.145306
vt 0.611237 0.389312
vt 0.511554 0.388871
vt 0.510866 0.368685
vt 0.146287 0.127790
vt 0.245286 0.155760
vt 0.388937 0.604108
vt 0.486566 0.605215
vt 0.489822 0.627465
vt 0.856383 0.144889
vt 0.751762 0.145118
vt 0.610143 0.627448
vt 0.509162 0.627136
vt 0.509280 0.612199
vt 0.265913 0.026955
vt 0.266936 0.128881
vt 0.251363 0.127270
vt 0.383954 0.856871
vt 0.492723 0.857018
vt 0.494601 0.870961
vt 0.750017 0.021701
vt 0.749556 0.130219
vt 0.733306 0.128303
vt 0.602851 0.872087
vt 0.515180 0.872983
vt 0.524277 0.855358
vt 0.493156 0.023324
vt 0.614151 0.021372
vt 0.614526 0.128307
vt 0.386730 0.154402
vt 0.385997 0.267571
vt 0.492808 0.267813
vt 0.510854 0.266212
vt 0.613043 0.266434
vt 0.611171 0.368218
vt 0.386180 0.390589
vt 0.389396 0.513995
vt 0.486890 0.511548
vt 0.508814 0.509482
vt 0.609973 0.508206
vt 0.610605 0.611967
vt 0.387505 0.625806
vt 0.384463 0.751357
vt 0.492628 0.748998
vt 0.528089 0.755936
vt 0.589237 0.754568
vt 0.600675 0.855496
vt 0.388224 0.870795
vt 0.733092 0.021961
vt 0.856495 0.022243
vt 0.856496 0.130384
vt 0.856135 0.251039
vt 0.752923 0.250192
vt 0.628132 0.145401
vt 0.628694 0.250900
vt 0.146001 0.028486
vt 0.250951 0.025001
vt 0.365158 0.024417
vt 0.366224 0.128885
vt 0.268421 0.242112
vt 0.147526 0.156421
vt 0.149530 0.242172
vt 0.500038 0.020937
vt 0.496518 0.015340
vt 0.614930 0.015298
vt 0.621207 0.493866
vt 0.621207 0.735460
vt 0.378870 0.378524
vt 0.617499 0.378804
vt 0.621207 0.364227
vt 0.378870 0.621141
vt 0.621207 0.621141
vt 0.621207 0.602457
vt 0.381127 0.863478
vt 0.621207 0.863478
vt 0.621207 0.854980
vn -0.371617 -0.655300 0.657634
vn -0.762691 -0.298704 0.573653
vn -0.689242 -0.666534 0.284037
vn -0.685593 -0.657897 0.311662
vn -0.478716 -0.416485 0.772898
vn -0.122278 -0.635128 0.762667
vn -0.184240 -0.632886 0.752005
vn -0.753347 -0.028483 0.657007
vn -0.753347 -0.028483 0.657007
vn 0.373226 -0.871765 0.317377
vn -0.011105 -0.997493 0.069888
vn 0.070155 -0.991446 0.110060
vn 0.648767 -0.570596 0.503509
vn 0.347277 0.027598 0.937357
vn 0.628207 -0.404679 0.664523
vn 0.682658 -0.440964 0.582691
vn 0.415821 0.051041 0.908013
vn -0.226920 0.000959 0.973913
vn 0.327057 0.093600 0.940358
vn -0.257996 0.037629 0.965413
vn 0.875963 0.057582 0.478929
vn 0.726194 -0.462183 0.508949
vn 0.920515 0.039065 0.388750
vn 0.872630 0.111253 0.475541
vn 0.404376 0.104102 0.908649
vn -0.655548 0.739627 -0.152343
vn -0.795319 0.602957 -0.062546
vn -0.815177 0.571708 -0.092933
vn -0.647324 0.734023 -0.205384
vn -0.594533 0.607849 0.526355
vn -0.793921 0.604318 -0.067010
vn -0.756177 0.628958 0.180576
vn -0.539532 0.621334 0.568199
vn -0.783106 0.621705 -0.015127
vn -0.293429 0.906470 0.303664
vn -0.337668 0.920572 0.196284
vn -0.801207 0.595987 -0.053552
vn 0.160307 0.555831 0.815692
vn -0.483937 0.536496 0.691359
vn 0.175548 0.489144 0.854354
vn 0.227703 0.563477 0.794132
vn -0.204843 0.927527 0.312622
vn 0.691101 0.547602 0.471711
vn 0.272245 0.822046 0.500123
vn 0.272245 0.822046 0.500123
vn 0.268961 0.492952 0.827441
vn 0.729711 0.489830 0.477063
vn -0.879469 0.223557 -0.420186
vn -0.805814 0.031019 -0.591355
vn -0.812398 -0.054060 -0.580592
vn -0.801151 0.167299 -0.574602
vn -0.883240 0.440991 -0.159415
vn -0.822629 0.377579 -0.425107
vn -0.879257 0.458130 -0.130474
vn -0.848657 0.500374 -0.171485
vn -0.828757 0.125916 -0.545259
vn -0.362867 0.265785 -0.893132
vn -0.387391 0.335887 -0.858550
vn -0.353803 0.195169 -0.914731
vn -0.354786 0.180984 -0.917263
vn -0.341526 0.895822 -0.284364
vn -0.849160 0.510402 -0.135709
vn -0.343831 0.907127 -0.242696
vn 0.228620 0.333499 -0.914610
vn 0.101214 0.684347 -0.722098
vn 0.235520 0.734858 -0.636015
vn 0.268693 0.364325 -0.891668
vn 0.695552 0.463471 -0.549001
vn 0.732638 0.391932 -0.556445
vn 0.290712 0.276593 -0.915960
vn 0.318622 0.763787 -0.561346
vn 0.318622 0.763787 -0.561346
vn -0.669021 -0.663258 -0.335410
vn -0.490487 -0.705733 -0.511237
vn -0.677372 -0.677661 -0.286258
vn -0.676725 -0.676823 -0.289747
vn -0.574019 -0.095207 -0.813288
vn -0.827846 0.040613 -0.559483
vn -0.820618 0.043927 -0.569786
vn -0.591373 -0.100264 -0.800141
vn -0.215834 -0.688573 -0.692303
vn -0.163337 -0.703033 -0.692145
vn -0.073488 -0.716363 -0.693846
vn 0.010871 -0.999793 -0.017213
vn 0.290139 -0.926668 -0.238968
vn 0.439080 -0.889239 -0.128312
vn 0.035105 -0.999218 -0.018187
vn 0.283600 -0.177124 -0.942443
vn -0.454836 -0.164580 -0.875236
vn -0.514919 -0.151957 -0.843663
vn 0.245366 -0.150740 -0.957639
vn 0.290328 -0.717384 -0.633301
vn 0.386903 -0.208393 -0.898264
vn 0.553435 -0.790002 -0.263830
vn 0.850446 -0.174065 -0.496430
vn 0.893096 -0.141965 -0.426878
vn 0.692171 -0.686980 -0.221263
vn 0.378981 -0.143868 -0.914153
vn 0.853860 -0.102116 -0.510388
vn -0.994097 0.050899 0.095817
vn -0.717568 0.673185 -0.178654
vn -0.997184 0.074319 -0.010094
vn -0.524519 0.519306 0.674686
vn -0.297405 0.029648 0.954291
vn 0.920663 0.103984 0.376255
vn 0.784988 0.493715 0.374219
vn -0.759437 0.333921 -0.558348
vn 0.768007 0.457301 -0.448376
vn 0.769308 0.522813 0.367193
vn 0.783466 0.418962 -0.458969
vn -0.298998 0.934750 0.191945
vn -0.293175 0.925541 -0.239631
vn -0.850308 0.028872 -0.525493
vn -0.791082 -0.020830 -0.611355
vn 0.896357 -0.080821 -0.435903
vn 0.240408 0.260102 -0.935174
vn -0.876953 0.012573 -0.480411
vn -0.998163 0.002452 0.060537
vn -0.022350 -0.998212 0.055436
vn 0.005915 -0.999981 -0.001902
vn -0.282166 -0.002157 0.959363
vn -0.267814 0.914765 -0.302459
vn 0.005796 -0.999879 -0.014454
vn -0.029305 -0.997902 0.057738
vn -0.994618 0.004250 0.103525
vn -0.457830 0.587955 -0.666859
vn -0.457830 0.587955 -0.666859
vn -0.822940 0.447420 0.350121
vn 0.257303 0.965831 -0.031070
vn 0.257303 0.965831 -0.031070
vn 0.257302 0.965831 -0.031070
vn 0.257303 0.965831 -0.031070
s 1
g pCube1
usemtl aiStandardSurface3SG
f 1/1/1 3/2/2 68/3/3 67/103/4
f 2/5/5 1/4/1 7/119/6 6/82/7
f 3/113/2 2/5/5 42/43/8 41/114/9
f 4/6/10 7/7/11 85/75/12 88/80/13
f 5/9/14 4/8/15 10/120/16 9/83/17
f 6/82/18 5/9/14 75/49/19 74/44/20
f 8/10/21 10/11/16 70/79/22 69/12/23
f 9/83/17 8/13/21 48/46/24 47/84/25
f 11/14/26 13/86/27 50/52/28 49/15/29
f 12/17/30 11/16/26 44/42/31 43/85/32
f 13/86/27 12/17/30 15/18/33 14/87/34
f 14/87/34 17/88/35 79/59/36 78/53/37
f 16/19/38 15/18/33 73/45/39 76/48/40
f 17/88/35 16/19/38 19/21/41 18/89/42
f 18/89/42 20/20/43 56/125/44 55/90/45
f 20/110/43 19/21/41 46/47/46 45/109/47
f 21/22/48 23/92/49 58/62/50 57/23/51
f 22/26/52 21/24/48 52/25/53 51/91/54
f 23/92/49 22/26/52 25/27/55 24/93/56
f 24/93/57 27/94/58 83/69/59 82/63/60
f 26/28/61 25/27/55 77/54/62 80/58/63
f 27/94/64 26/28/65 29/30/66 28/95/67
f 28/95/67 30/29/68 64/128/69 63/96/70
f 30/121/68 29/30/66 54/57/71 53/31/72
f 31/32/73 33/98/74 66/73/75 65/33/76
f 32/36/77 31/34/78 60/35/79 59/97/80
f 33/98/74 32/36/81 35/37/82 34/99/83
f 34/99/84 37/100/85 87/81/86 86/74/87
f 36/38/88 35/37/89 81/64/90 84/68/91
f 37/100/85 36/38/92 39/40/93 38/101/94
f 38/101/94 40/39/95 72/131/96 71/102/97
f 40/122/95 39/40/93 62/67/98 61/41/99
f 41/114/100 44/42/31 96/51/101 95/71/102
f 43/85/103 42/43/104 74/44/20 73/45/39
f 45/109/47 48/46/24 90/78/105 89/56/106
f 47/84/25 46/47/46 76/48/40 75/49/19
f 49/115/29 52/50/53 93/61/107 96/51/101
f 51/91/54 50/52/28 78/53/37 77/54/62
f 53/108/108 56/55/109 89/56/106 92/66/110
f 55/90/111 54/57/112 80/58/63 79/59/36
f 57/116/51 60/60/79 94/72/113 93/61/107
f 59/97/80 58/62/50 82/63/114 81/64/90
f 61/106/99 64/65/69 92/66/110 91/77/115
f 63/96/70 62/67/98 84/68/91 83/69/116
f 65/112/117 68/70/118 95/71/102 94/72/113
f 67/103/119 66/73/120 86/74/87 85/75/12
f 69/104/23 72/76/96 91/77/115 90/78/105
f 71/102/97 70/79/22 88/80/13 87/81/86
f 2/5/121 6/82/18 74/44/20 42/43/104
f 5/9/14 9/83/17 47/84/25 75/49/19
f 76/48/40 46/47/46 19/21/41 16/19/38
f 43/85/103 73/45/39 15/18/33 12/17/30
f 13/86/27 14/87/34 78/53/37 50/52/28
f 17/88/35 18/89/42 55/90/111 79/59/36
f 80/58/63 54/57/112 29/30/122 26/28/61
f 51/91/54 77/54/62 25/27/55 22/26/52
f 23/92/49 24/93/56 82/63/114 58/62/50
f 27/94/64 28/95/67 63/96/70 83/69/116
f 84/68/91 62/67/98 39/40/93 36/38/88
f 59/97/80 81/64/90 35/37/89 32/36/77
f 33/98/123 34/99/84 86/74/87 66/73/120
f 37/100/85 38/101/94 71/102/97 87/81/86
f 88/80/13 70/79/22 10/11/16 4/6/15
f 67/103/119 85/75/12 7/7/11 1/1/124
f 8/13/21 69/104/23 90/78/105 48/46/24
f 72/76/96 40/105/95 61/106/99 91/77/115
f 92/66/110 64/65/69 30/107/68 53/108/108
f 45/109/47 89/56/106 56/55/109 20/110/43
f 31/111/78 65/112/117 94/72/113 60/60/79
f 68/70/118 3/113/125 41/114/100 95/71/102
f 96/51/101 44/42/31 11/16/26 49/115/29
f 57/116/51 93/61/107 52/50/53 21/117/48
f 1/4/1 2/5/5 3/113/2
f 4/118/15 5/9/14 6/82/7 7/119/6
f 8/13/21 9/83/17 10/120/16
f 11/16/26 12/17/30 13/86/27
f 14/87/34 15/18/33 16/19/38 17/88/35
f 18/89/42 19/21/41 20/110/43
f 21/24/48 22/26/52 23/92/49
f 24/93/57 25/27/126 26/28/127 27/94/58
f 28/95/67 29/30/66 30/121/68
f 31/34/73 32/36/81 33/98/74
f 34/99/83 35/37/82 36/38/92 37/100/85
f 38/101/94 39/40/93 40/122/95
f 41/114/100 42/43/128 43/85/32 44/42/31
f 45/109/47 46/47/46 47/84/25 48/46/24
f 49/15/29 50/52/28 51/91/54 52/123/53
s off
f 53/124/129 54/57/130 55/90/131 56/125/132
s 1
f 57/23/51 58/62/50 59/97/80 60/126/79
f 61/127/99 62/67/98 63/96/70 64/128/69
f 65/33/76 66/73/75 67/103/4 68/129/3
f 69/130/23 70/79/22 71/102/97 72/131/96
f 73/45/39 74/44/20 75/49/19 76/48/40
f 77/54/62 78/53/37 79/59/36 80/58/63
f 81/64/90 82/63/60 83/69/59 84/68/91
f 85/75/12 86/74/87 87/81/86 88/80/13
f 89/56/106 90/78/105 91/77/115 92/66/110
f 93/61/107 94/72/113 95/71/102 96/51/101
