# This file uses centimeters as units for non-parametric coordinates.

mtllib scalpel.mtl
g default
v 0.011091 0.008978 -1.062323
v 0.117395 0.008978 -1.062323
v 0.011091 0.044021 -1.062323
v 0.117395 0.044021 -1.062323
v 0.011091 0.044021 -1.434195
v 0.117395 0.044021 -1.434195
v 0.011091 0.008978 -1.434195
v 0.117395 0.008978 -1.434195
v 0.116924 0.009193 -1.431901
v 0.116924 0.043925 -1.431901
v 0.116916 0.043925 -2.125530
v 0.116916 0.009193 -2.125530
v -0.033157 0.043925 -1.635340
v -0.033157 0.009193 -1.635340
v 0.116924 0.009193 -1.635340
v 0.116924 0.043925 -1.635340
v -0.033157 0.043925 -1.957356
v 0.011861 0.043925 -2.042871
v 0.011861 0.009193 -2.042871
v -0.033157 0.009193 -1.957356
v -0.033157 0.009193 -1.446907
v -0.007906 0.009193 -1.377306
v -0.022901 0.009193 -1.408576
v -0.033157 0.043925 -1.446907
v -0.022901 0.043925 -1.408576
v -0.007906 0.043925 -1.377306
v 0.014515 0.043925 -1.341538
v 0.016798 0.009193 -1.342536
v 0.127217 -0.011653 -1.080903
v -0.127217 -0.011653 0.576715
v -0.038174 -0.011653 0.704126
v -0.101137 -0.011653 0.666808
v 0.127217 -0.011653 0.576715
v 0.101137 -0.011653 0.666808
v 0.038174 -0.011653 0.704126
v -0.000013 -0.011653 -1.080903
v -0.089060 -0.011653 -0.997253
v -0.127217 -0.011653 -0.910716
v -0.081842 0.079106 0.570279
v -0.113927 0.065816 0.574830
v -0.127217 0.033731 0.576715
v -0.081842 0.079106 -0.901156
v -0.113927 0.065816 -0.907916
v -0.127217 0.033731 -0.910716
v -0.038174 0.033731 0.704126
v -0.034531 0.065816 0.690836
v -0.025737 0.079106 0.658751
v 0.025737 0.079106 0.658751
v 0.034531 0.065816 0.690836
v 0.038174 0.033731 0.704126
v 0.081842 0.079106 -1.035529
v 0.113927 0.065816 -1.067613
v 0.127217 0.033731 -1.080903
v 0.127217 0.033731 0.576715
v 0.113927 0.065816 0.574830
v 0.081842 0.079106 0.570279
v -0.062547 0.079106 0.636935
v -0.089834 0.065816 0.658059
v -0.101137 0.033731 0.666808
v 0.062547 0.079106 0.636935
v 0.089834 0.065816 0.658059
v 0.101137 0.033731 0.666808
v 0.017957 0.079106 -1.035529
v 0.005250 0.065816 -1.067613
v -0.000013 0.033731 -1.080903
v -0.051266 0.079106 -0.970501
v -0.077990 0.065816 -0.989418
v -0.089060 0.033731 -0.997253
v 0.027335 0.079106 -1.008329
v 0.080147 0.079106 0.576138
vt 0.565772 0.152975
vt 0.565772 0.342315
vt 0.547930 0.342315
vt 0.547930 0.152975
vt 0.475963 0.342315
vt 0.475963 0.152975
vt 0.493805 0.152975
vt 0.493805 0.342315
vt 0.552731 0.484666
vt 0.552731 0.589084
vt 0.534904 0.589084
vt 0.534904 0.484666
vt 0.552732 0.840680
vt 0.534906 0.840680
vt 0.534904 0.438287
vt 0.552730 0.438799
vt 0.647588 0.589085
vt 0.629761 0.589084
vt 0.629762 0.492369
vt 0.647588 0.492369
vt 0.647587 0.754363
vt 0.629760 0.754363
vt 0.629762 0.472695
vt 0.647588 0.472695
vt 0.647587 0.798254
vt 0.629760 0.798254
vt 0.629762 0.456645
vt 0.647589 0.456645
vt 0.647586 0.840680
vt 0.629760 0.840680
vt 0.629762 0.438799
vt 0.647589 0.438287
vt 0.331243 0.952924
vt 0.314961 0.946180
vt 0.314961 0.112691
vt 0.331243 0.111734
vt 0.314961 0.070455
vt 0.331243 0.066014
vt 0.354274 0.111734
vt 0.354274 0.952924
vt 0.354274 0.066014
vt 0.354274 0.047077
vt 0.331243 0.047077
vt 0.183050 0.866559
vt 0.160019 0.866559
vt 0.160019 0.111734
vt 0.183050 0.111734
vt 0.183050 0.910474
vt 0.160019 0.910474
vt 0.160019 0.066014
vt 0.183050 0.066014
vt 0.199332 0.112691
vt 0.199332 0.865138
vt 0.199332 0.906498
vt 0.183050 0.952924
vt 0.160019 0.952924
vt 0.160019 0.047077
vt 0.183050 0.047077
vt 0.199332 0.070455
vt 0.199332 0.946180
vt 0.619897 0.342315
vt 0.619897 0.152975
vt 0.480979 0.798254
vt 0.534900 0.840680
vt 0.457873 0.754362
vt 0.457873 0.589084
vt 0.457873 0.492369
vt 0.463138 0.472695
vt 0.470834 0.456645
vt 0.482342 0.438286
vt 0.629761 0.754363
vt 0.606655 0.798254
vt 0.604122 0.438799
vt 0.552733 0.840680
vt 0.624498 0.472695
vt 0.616802 0.456645
vt 0.030902 0.952924
vt 0.146784 0.066014
vt 0.114833 0.047077
vt 0.095467 0.952924
vt 0.076088 0.047077
vt 0.140655 0.910474
vt 0.030902 0.111734
vt 0.044136 0.066014
vt 0.244086 0.070103
vt 0.239623 0.053821
vt 0.274670 0.053821
vt 0.270208 0.070103
vt 0.225406 0.081174
vt 0.211558 0.070455
vt 0.302735 0.070455
vt 0.288887 0.081174
vt 0.297818 0.112027
vt 0.298679 0.115000
vt 0.215614 0.115000
vt 0.215614 0.861708
vt 0.298679 0.929898
vt 0.231131 0.896898
vt 0.217569 0.906498
vt 0.259811 0.946180
vt 0.266259 0.929898
vt 0.271018 0.916095
vt 0.565772 0.135132
vt 0.619897 0.135132
vt 0.547930 0.360157
vt 0.493805 0.360157
vt 0.112984 0.007764
vt 0.114833 0.024046
vt 0.076088 0.024046
vt 0.077937 0.007764
vt 0.141049 0.007764
vt 0.146784 0.024046
vt 0.044136 0.024046
vt 0.049872 0.007764
vt 0.095467 0.975954
vt 0.030902 0.975954
vt 0.037645 0.992237
vt 0.092796 0.992237
vn 0.000000 0.000000 1.000000
vn 0.000000 0.000000 1.000000
vn 0.000000 0.000000 1.000000
vn 0.000000 0.000000 1.000000
vn 0.000000 1.000000 0.000000
vn 0.000000 1.000000 0.000000
vn 0.000000 1.000000 0.000000
vn 0.000000 1.000000 0.000000
vn 0.000000 0.000000 -1.000000
vn 0.000000 0.000000 -1.000000
vn 0.000000 0.000000 -1.000000
vn 0.000000 0.000000 -1.000000
vn 0.000000 -1.000000 0.000000
vn 0.000000 -1.000000 0.000000
vn 0.000000 -1.000000 0.000000
vn 0.000000 -1.000000 0.000000
vn 1.000000 0.000000 0.000000
vn 1.000000 0.000000 0.000000
vn 1.000000 0.000000 0.000000
vn 1.000000 0.000000 0.000000
vn -1.000000 0.000000 0.000000
vn -1.000000 0.000000 0.000000
vn -1.000000 0.000000 0.000000
vn -1.000000 0.000000 0.000000
vn 0.385989 -0.000575 0.922503
vn 0.414853 0.000555 0.909889
vn 0.663696 0.011060 0.747921
vn 0.663696 0.011060 0.747921
vn 1.000000 0.000000 0.000000
vn 1.000000 0.000000 -0.000011
vn 1.000000 0.000000 -0.000011
vn 1.000000 0.000000 0.000000
vn -1.000000 0.000000 0.000000
vn -1.000000 0.000000 0.000000
vn -0.998979 0.000000 0.045183
vn -0.998979 0.000000 0.045183
vn -0.993954 0.000000 -0.109796
vn -0.993954 0.000000 -0.109796
vn 1.000000 0.000000 -0.000015
vn 1.000000 0.000000 -0.000015
vn 0.000000 1.000000 -0.000000
vn 0.000000 1.000000 -0.000000
vn 0.000000 1.000000 0.000000
vn -0.746119 0.000000 -0.665813
vn -0.746119 0.000000 -0.665813
vn -0.618358 0.000000 -0.785896
vn -0.618358 0.000000 -0.785896
vn 0.000000 -1.000000 0.000000
vn 0.000000 -1.000000 0.000000
vn 0.000000 -1.000000 -0.000000
vn -0.966017 0.000000 0.258478
vn -0.966017 0.000000 0.258478
vn -0.901685 0.000000 0.432393
vn -0.865068 -0.019471 0.501277
vn -0.865068 -0.019471 0.501277
vn -0.901685 0.000000 0.432393
vn 0.000000 -1.000000 -0.000000
vn 0.000000 -1.000000 0.000000
vn 0.000000 1.000000 0.000000
vn 0.000000 1.000000 0.000000
vn 0.000000 1.000000 0.000000
vn 0.000000 1.000000 0.000000
vn 0.000000 1.000000 -0.000000
vn 0.000000 1.000000 0.000000
vn 0.000000 -1.000000 -0.000000
vn 0.000000 -1.000000 -0.000000
vn 0.000000 -1.000000 0.000000
vn 0.000000 -1.000000 0.000000
vn 0.000000 1.000000 -0.000000
vn 0.000000 -1.000000 0.000000
vn 0.000000 -1.000000 -0.000000
vn 0.000000 -1.000000 -0.000000
vn 0.000000 -1.000000 0.000000
vn -0.026510 0.994301 0.103259
vn -0.092261 0.928626 0.359362
vn 0.092260 0.928626 0.359362
vn 0.042693 0.985152 0.166293
vn -0.236066 0.394622 0.888001
vn -0.254602 0.162853 0.953235
vn 0.254601 0.162852 0.953235
vn 0.236065 0.394623 0.888001
vn 0.989616 0.143734 0.000000
vn 0.923879 0.382684 0.000000
vn 0.923520 0.383319 0.013340
vn 0.986117 0.165416 0.014525
vn 0.382684 0.923880 0.000000
vn 0.245720 0.969253 -0.013054
vn 0.134992 0.990845 0.001724
vn 0.382088 0.924113 0.004879
vn -0.000001 0.000000 1.000000
vn -0.000001 0.000000 1.000000
vn 0.000000 0.000001 -1.000000
vn 0.000000 0.152336 -0.988329
vn 0.000000 0.137293 -0.990531
vn 0.000000 0.000001 -1.000000
vn 0.999889 -0.000000 0.014921
vn 1.000000 -0.000000 0.000000
vn -0.986095 0.164493 -0.023656
vn -0.999706 0.000000 -0.024236
vn -0.999863 0.000000 0.016530
vn -0.986045 0.165702 0.016074
vn -0.960563 -0.000000 0.278062
vn -0.948834 0.155798 0.274666
vn -0.509867 0.000000 0.860253
vn -0.509867 0.000000 0.860253
vn -0.503821 0.153552 0.850051
vn 0.509868 -0.000001 0.860253
vn 0.509868 -0.000001 0.860253
vn 0.503821 0.153551 0.850051
vn 0.960563 -0.000000 0.278062
vn 0.948834 0.155798 0.274666
vn -0.012969 0.999483 -0.029432
vn 0.000000 1.000000 0.000000
vn -0.800984 0.000000 -0.598686
vn -0.790174 0.164368 -0.590430
vn -0.676256 0.156331 -0.719888
vn -0.684674 0.000001 -0.728849
vn -0.122324 0.992489 0.001710
vn -0.382032 0.924134 0.005340
vn -0.300293 0.932859 0.198993
vn -0.093240 0.993725 0.061787
vn -0.923473 0.383381 0.014739
vn -0.887445 0.382684 0.256895
vn -0.922986 0.384215 -0.021792
vn -0.203245 0.979118 -0.004354
vn -0.381202 0.924456 -0.008166
vn 0.300293 0.932859 0.198993
vn 0.160390 0.981315 0.106285
vn 0.471057 0.382684 0.794770
vn 0.000000 0.923880 -0.382683
vn -0.145008 0.933103 -0.329076
vn 0.000000 0.382677 -0.923882
vn 0.000000 0.382677 -0.923882
vn -0.471056 0.382683 0.794770
vn 0.887445 0.382684 0.256896
vn 0.169137 0.984376 0.048961
vn -0.301728 0.926541 -0.224680
vn -0.020345 0.999678 -0.015150
vn -0.632557 0.382681 -0.673370
vn -0.738017 0.389233 -0.551206
vn 0.000000 -1.000000 0.000000
vn 0.000000 -1.000000 0.000000
vn 0.000000 -1.000000 0.000000
vn 0.000000 -1.000000 0.000000
vn 0.000000 -1.000000 0.000000
vn 0.000000 -1.000000 -0.000000
vn 0.000000 -1.000000 0.000000
s off
g pCube11
usemtl aiStandardSurface2SG
f 1/62/1 2/1/2 4/103/3 3/104/4
f 3/7/5 4/4/6 6/3/7 5/8/8
f 5/8/9 6/3/10 8/105/11 7/106/12
f 7/61/13 8/2/14 2/1/15 1/62/16
f 2/1/17 8/2/18 6/3/19 4/4/20
f 7/5/21 1/6/22 3/7/23 5/8/24
s 1
f 27/15/25 28/16/26 9/9/27 10/12/28
s 2
f 9/9/29 15/10/30 16/11/31 10/12/32
s 3
f 13/17/33 14/18/34 21/19/35 24/20/36
f 17/21/37 20/22/38 14/18/34 13/17/33
s 2
f 16/11/31 15/10/30 12/13/39 11/14/40
s 4
f 18/63/41 16/11/42 11/64/43
s 3
f 19/26/44 18/25/45 11/29/46 12/30/47
s 5
f 20/71/48 15/10/49 14/18/50
s 3
f 17/21/37 18/25/45 19/26/44 20/22/38
f 21/19/35 23/23/51 25/24/52 24/20/36
s 1
f 23/23/53 22/27/54 26/28/55 25/24/56
s 5
f 28/73/57 14/18/50 15/10/49 9/9/58
s 4
f 25/68/59 16/11/42 24/67/60
s 1
f 26/28/55 22/27/54 28/31/26 27/32/25
s 4
f 24/67/60 16/11/42 13/66/61
f 26/69/62 16/11/42 25/68/59
f 27/70/63 16/11/42 26/69/62
f 10/12/64 16/11/42 27/70/63
s 5
f 23/75/65 14/18/50 28/73/57 22/76/66
f 15/10/49 19/72/67 12/74/68
f 20/71/48 19/72/67 15/10/49
s 4
f 13/66/61 16/11/42 17/65/69
f 17/65/69 16/11/42 18/63/41
s 5
f 21/19/70 14/18/50 23/75/65
s 7
f 29/77/71 32/78/72 30/46/73
s 8
f 47/85/74 46/86/75 49/87/76 48/88/77
s 9
f 46/107/78 45/108/79 50/109/80 49/110/81
s 10
f 53/33/82 52/34/83 55/35/84 54/36/85
s 8
f 52/34/86 51/97/87 56/94/88 55/35/89
s 9
f 45/108/79 31/79/90 35/81/91 50/109/80
s 12
f 36/80/92 65/115/93 53/116/94 29/77/95
s 10
f 54/36/85 33/39/96 29/40/97 53/33/82
s 13
f 44/44/98 38/45/99 30/46/100 41/47/101
f 30/46/100 32/50/102 59/51/103 41/47/101
s 9
f 32/50/104 31/57/105 45/58/79 59/51/106
f 35/42/107 34/41/108 62/38/109 50/43/80
s 10
f 34/41/110 33/39/96 54/36/85 62/38/111
s 8
f 56/94/88 51/97/87 63/101/112 69/102/113
s 13
f 37/49/114 68/48/115 65/55/116 36/56/117
f 44/44/98 68/48/115 37/49/114 38/45/99
s 8
f 39/95/118 40/52/119 58/90/120 57/89/121
s 13
f 40/52/122 41/47/101 59/51/103 58/59/123
f 41/47/101 40/52/122 43/53/124 44/44/98
s 8
f 40/52/119 39/95/118 42/96/125 43/53/126
f 48/88/77 49/87/76 61/91/127 60/92/128
s 9
f 49/110/81 50/109/80 62/113/109 61/114/129
s 8
f 51/97/87 52/34/130 64/100/131 63/101/112
s 12
f 52/117/132 53/116/94 65/115/93 64/118/133
s 9
f 45/108/79 46/107/78 58/111/134 59/112/106
s 8
f 46/86/75 47/85/74 57/89/121 58/90/120
s 10
f 54/36/85 55/35/84 61/37/135 62/38/111
s 8
f 55/35/89 56/94/88 70/93/136 60/92/128 61/91/127
f 63/101/112 64/100/131 67/99/137 66/98/138
s 13
f 64/60/139 65/55/116 68/48/115 67/54/140
f 44/44/98 43/53/124 67/54/140 68/48/115
s 8
f 43/53/126 42/96/125 66/98/138 67/99/137
f 39/95/118 56/94/88 42/96/125
f 56/94/88 66/98/138 42/96/125
f 56/94/88 69/102/113 63/101/112 66/98/138
s 7
f 35/81/141 29/77/71 33/83/142 34/84/143
f 37/82/144 30/46/73 38/45/145
f 31/79/146 32/78/72 29/77/71
f 31/79/146 29/77/71 35/81/141
f 29/77/71 30/46/73 36/80/147
f 36/80/147 30/46/73 37/82/144
s 8
f 47/85/74 56/94/88 39/95/118 57/89/121
f 70/93/136 56/94/88 47/85/74 48/88/77 60/92/128
